<?xml version="1.0" standalone="no"?>
<!DOCTYPE svg PUBLIC "-//W3C//DTD SVG 20010904//EN"
 "http://www.w3.org/TR/2001/REC-SVG-20010904/DTD/svg10.dtd">
<svg version="1.0" xmlns="http://www.w3.org/2000/svg"
 width="251.000000pt" height="201.000000pt" viewBox="0 0 251.000000 201.000000"
 preserveAspectRatio="xMidYMid meet">
<metadata>
Created by potrace 1.15, written by Peter Selinger 2001-2017
</metadata>
<g transform="translate(0.000000,201.000000) scale(0.100000,-0.100000)"
fill="#000000" stroke="none">
<path d="M1135 1940 l-110 -68 -3 64 -3 64 -114 0 -115 0 0 -134 0 -134 -172
-105 c-95 -58 -273 -166 -395 -239 l-221 -135 53 -41 c30 -23 61 -45 69 -48 9
-3 51 16 99 45 47 28 87 51 91 51 3 0 7 -267 8 -592 l3 -593 73 -3 72 -3 0
644 0 645 378 228 c207 125 384 232 392 237 12 7 150 -72 565 -323 303 -183
557 -335 565 -337 9 -2 44 17 78 44 53 41 60 49 45 57 -10 5 -292 175 -626
378 -334 202 -611 368 -615 367 -4 0 -56 -31 -117 -69z"/>
</g>
</svg>
